<svg xmlns="http://www.w3.org/2000/svg" width="880" height="280" viewBox="0 0 880 280">
  <g stroke-width="2" fill="none">
    <!-- wicks -->
    <g stroke="#C9A84C">
      <line x1="30"  y1="60"  x2="30"  y2="200"/>
      <line x1="140" y1="40"  x2="140" y2="180"/>
      <line x1="250" y1="50"  x2="250" y2="170"/>
      <line x1="360" y1="30"  x2="360" y2="160"/>
      <line x1="470" y1="55"  x2="470" y2="185"/>
      <line x1="580" y1="45"  x2="580" y2="175"/>
      <line x1="690" y1="60"  x2="690" y2="200"/>
      <line x1="800" y1="40"  x2="800" y2="170"/>
    </g>
    <g stroke="#8892A4">
      <line x1="85"  y1="80"  x2="85"  y2="220"/>
      <line x1="195" y1="100" x2="195" y2="240"/>
      <line x1="305" y1="70"  x2="305" y2="210"/>
      <line x1="415" y1="90"  x2="415" y2="230"/>
      <line x1="525" y1="75"  x2="525" y2="215"/>
      <line x1="635" y1="95"  x2="635" y2="235"/>
      <line x1="745" y1="80"  x2="745" y2="210"/>
      <line x1="855" y1="70"  x2="855" y2="220"/>
    </g>
  </g>
  <g>
    <!-- bull bodies (gold) -->
    <g fill="#C9A84C">
      <rect x="23"  y="90"  width="14" height="80"  rx="2"/>
      <rect x="133" y="70"  width="14" height="80"  rx="2"/>
      <rect x="243" y="80"  width="14" height="60"  rx="2"/>
      <rect x="353" y="60"  width="14" height="70"  rx="2"/>
      <rect x="463" y="85"  width="14" height="70"  rx="2"/>
      <rect x="573" y="75"  width="14" height="70"  rx="2"/>
      <rect x="683" y="90"  width="14" height="80"  rx="2"/>
      <rect x="793" y="70"  width="14" height="70"  rx="2"/>
    </g>
    <!-- bear bodies (gray, outlined) -->
    <g fill="none" stroke="#8892A4" stroke-width="2">
      <rect x="78"  y="110" width="14" height="80" rx="2"/>
      <rect x="188" y="130" width="14" height="80" rx="2"/>
      <rect x="298" y="100" width="14" height="80" rx="2"/>
      <rect x="408" y="120" width="14" height="80" rx="2"/>
      <rect x="518" y="105" width="14" height="80" rx="2"/>
      <rect x="628" y="125" width="14" height="80" rx="2"/>
      <rect x="738" y="110" width="14" height="70" rx="2"/>
      <rect x="848" y="100" width="14" height="90" rx="2"/>
    </g>
  </g>
</svg>
